<?xml version="1.0" encoding="UTF-8"?>
<svg xmlns="http://www.w3.org/2000/svg" version="1.1" xmlns:xlink="http://www.w3.org/1999/xlink" viewBox="0 0 680 556">
  <defs>
    <style>
      .cls-1 {
        fill: #c6bf9d;
      }

      .cls-1, .cls-2, .cls-3 {
        stroke-width: 0px;
      }

      .cls-2 {
        fill: #c5bf9e;
      }

      .cls-3 {
        fill: url(#Degradado_sin_nombre);
      }
    </style>
    <linearGradient id="Degradado_sin_nombre" data-name="Degradado sin nombre" x1="69" y1="463" x2="479.2" y2="93.6" gradientTransform="translate(0 558) scale(1 -1)" gradientUnits="userSpaceOnUse">
      <stop offset="0" stop-color="#83603c"/>
      <stop offset=".3" stop-color="#c09e62"/>
      <stop offset=".5" stop-color="#fbf5d7"/>
      <stop offset=".8" stop-color="#aa8448"/>
      <stop offset="1" stop-color="#83603c"/>
    </linearGradient>
  </defs>
  <g id="Capa_2" data-name="Capa 2">
    <path class="cls-3" d="M540.7,214.9c-.8-2.9-2.2-8.1-3.1-11.1-1-3.7-2.8-8.8-4-12.5-1.2-3.6-3.2-8.7-4.6-12.3-8.9-21.9-20.2-41.9-33.3-59.9-38.6-57.5-98.9-100-169.5-113.7C198.5-20.5,76.5,49.8,28,160.9,9.7,198.3-.2,239.9,0,281.6c-.3,73.6,30.5,146.5,83.6,197.5,139.9,135.2,372.5,85,445.3-94.8,1.3-3.6,3.5-8.7,4.6-12.3,1.1-3.7,3.1-8.8,4-12.5.8-2.9,2.3-8.2,3.1-11.1,5.3-21.8,8.2-44.3,8.2-66.7,0-22.5-2.9-44.9-8.2-66.7h0ZM222,6.6c108.6-22.1,213.2,26,271.4,109.6C397.7-10.6,205.5-33.6,83.6,84.2c-8.4,8-16.2,16.6-23.4,25.6C98.7,57.7,155.9,19.4,222,6.6ZM26.6,281.6c-.4-102.5,61.7-197.6,155.6-238.8,128.4-56.3,267.6-1.9,331.2,107.1,17.5,35.3,27.4,75.2,27.4,117.7.3,167.5-154.6,294.4-318.8,261.1-27.1-5.2-52.6-14.8-76-27.8-73.3-47.5-119.7-130.6-119.3-219.2h0ZM182.2,520.5c-6-2.7-11.9-5.5-17.7-8.6,48.7,21.9,104.6,29.6,161.6,18,123.5-23.9,215.8-136.4,214.7-262.2.3-41.3-9.3-81.1-26.9-116.8,21.9,37.9,34.8,82.3,34.9,130.9-.7,189.3-193.5,314.8-366.7,238.8Z"/>
  </g>
  <g id="Capa_3" data-name="Capa 3">
    <g>
      <g>
        <path class="cls-2" d="M462.3,332.7c-1.6,5.2-4.6,9.6-7.1,14.3-3.8,6.9-7.5,13.9-12.3,20.1-.8,1-1.6,2.1-2.6,3-2.3,1.9-3.5,1.4-3.9-1.6-1-7.5,0-15,.6-22.4.4-5.7,1.1-11.3,1.6-17,.7-8.5,1.6-17,2.7-25.5,1-7.2,1.4-14.4,2.4-21.6,1.3-9.2,1.6-18.4,3.4-27.6.6-3.2.6-6.6.4-10-11,30.4-22.1,60.8-33.2,91.2-.7-11.8-1.3-23.3-2.3-34.9-1-11.4-2.9-22.8-6.7-34.2-2.5,4.9-4.4,9.6-7.6,13.5-.3.4-.4.9-.8,1.2-5.9,4.2-6,10.2-5.8,16.6.3,11.8,0,23.7.1,35.5,0,2.8-.1,4-3.7,3.2-12.7-3-25.5-5.4-38.2-8.1-3.2-.7-4.2-.2-4.1,3.3.2,11.4.1,22.7,0,34.1,0,1.2.3,2.5-.5,3.5-1,1.1-2.3,1.9-3.8,1.3-1.9-.6-2.4-2.3-2.4-4,0-8,.2-16,.2-24,0-4.8-.2-9.5-.1-14.3,0-2.1-1.6-2.4-2.8-2.5-3-.3-5.6-2-8.7-1.6,0-.3-.2-.6-.2-.9,2.8-1.6,5.5-3.3,8.4-4.7,2.6-1.2,3.6-2.8,3.6-5.8-.2-14.7,0-29.4-.2-44.1,0-2.6,1.3-3.9,3.5-3.9,2.2,0,3.2,1.5,3.2,3.9,0,13,0,26.1,0,39.1v4.8c5.9-3,11-6.6,16.3-10,7.3-4.8,14.1-10.2,20.8-15.8,1.2-1,1.8-2.1,1.8-3.7,0-12,0-23.9,0-35.9,0-1.8-.5-2.8-2.3-3.4-20-6.6-38.7-4.6-55.7,8.3-9.6,7.3-16.7,16.9-22.4,27.5-.4.7-.6,1.6-1.1,2.2-1,1.5-2.2,2.6-4.1,1.7-2-.9-3-2.4-2-4.6,2.4-5.7,5.7-11,9.4-15.9,9.7-13,21.7-22.9,37.5-27.6,4.5-1.3,9-1.8,13.7-1.8,8.4,0,16.6,0,24.6,2.8,1.6.6,2.5,0,2.4-1.9,0-1.9-.2-3.9,0-5.7.2-1.8.5-3.7,3.2-3.8,2.8,0,3.7,1.4,3.9,3.6.2,2.2.4,4.6,0,6.8-.8,4.3,1.9,6.5,5,7.4,7.6,2,11.5,7.6,14.5,14.1,5.5,11.9,7.4,24.7,8.5,37.7.1,1.2.2,2.4,1.2,3.6,3.2-8.4,6.4-16.5,9.6-24.7,5.7-14.6,11.4-29.3,17.1-43.9.7-1.9,1.4-3.8,4.1-3.8,2.6,0,4,1.1,3.9,3.9-.2,5.8-1.6,11.5-2.4,17.3-1.2,9.4-2.7,18.8-4.1,28.1-1.7,11.5-3.3,23-4.9,34.5-.9,6.7-1.6,13.4-2.3,20.2-1.2,11-2.4,21.9-3.5,32.9-.2,1.9,0,3.8,0,6.1,3.5-1.5,4.8-4.3,6.5-6.8,5.9-8.8,11.2-18,16.3-27.3.4-.7.7-1.5,1.6-1.8h0s0,0,0,0ZM346.2,320.2c.5.5.7.7.9.8,11.3,2.4,22.7,4.9,34,7.3,2.2.5,3-.3,3-2.6-.1-5.9,0-11.7,0-17.5v-14c-12.2,10.3-24.7,18.4-37.8,26h0ZM391.5,248.6v27.5c2.4-2.1,3.7-4.7,5-7.2,2.2-4.4,2.6-9,1.2-13.8-1-3.2-4.7-3.1-6.2-6.5h0Z"/>
        <path class="cls-2" d="M274,192.3c1.8,11.7,3.6,23.1,5.4,34.4,1.6,10.2,3.2,20.3,4.9,30.5,1.6,10,3.4,20.1,4.8,30.2.7,4.9,1.7,9.8,2.3,14.8.2,2,.8,2.8,2.8,2.6,1.1-.1,2.1,0,3.2,0,2.1,0,3.3,1,3.5,3.3.2,2.3-1.1,3.3-3,3.8-.8.2-1.7.2-2.5,0-2.2-.2-2.6.7-2.2,2.8,1.7,10.2,3.3,20.4,5,30.5.4,2.4-.3,4.1-2.6,4.7-2.4.5-3.7-.7-4.1-3.2-1.3-8.8-3.1-17.5-4.1-26.3-1-8.5-.8-8.5-9.2-8.5-4.4,0-8.9.1-13.3,0-1.9,0-2.6.5-2.8,2.6-1.6,17.4-8.2,33-18.6,46.9-5.8,7.8-13.8,12.9-24.2,12.3-7.1-.4-13.1-3.6-18.2-8.2-9.4-8.5-15.6-19-17.1-31.6-1-7.7,1.7-12.9,9.1-17.1,6.7-3.8,14.2-5.3,21.6-7,11.1-2.4,22.4-2.6,33.5-4.2.1,0,.2,0,.4,0,2.5-.6,5.9,1.4,7.6-1.2,1.3-2,1.2-5,1.6-7.6,2-13.7,3.8-27.5,5.9-41.2,2-13,4.2-25.9,6.3-38.9,1.1-7,2-14.1,3-21.1.1-1.1.4-2.1,1.3-3.2h0ZM247.5,312.6c-10.7,1.4-23,1.9-35.1,4.7-6,1.4-12,2.9-17.3,6.3-2.9,1.8-4.2,4.3-4.3,7.7,0,5.4,2,10.2,4.2,14.9,3.3,7,8.3,12.5,14.5,16.9,9.2,6.6,21.1,3.7,28.7-6.6,8.2-11.2,13.2-23.9,16.3-37.3,1.4-6,.7-6.6-7.1-6.6h0ZM273.8,236.9c-1.5,4.2-1.8,8.4-2.4,12.6-2.7,17.4-5.2,34.9-7.9,52.3-.3,2.2.2,3,2.5,3,4.8-.1,9.6-.3,14.3,0,3.8.3,4.4-1.5,3.8-4.4-1.4-6.1-2-12.4-2.9-18.6-2.3-15-4.9-29.9-7.4-44.9h0Z"/>
        <path class="cls-2" d="M158.5,272.7v-28.4c0-1.2-.1-2.4.4-3.5.7-1.7,2-2.1,3.7-2.2,1.7,0,2.4,1.1,2.8,2.4.3,1.1.3,2.4.3,3.5,0,18.7,0,37.3,0,56,0,3.3,1.1,3.8,4,3.3,6.4-1,12.8-1.4,19.2-1.3,2,0,3.1,1,3.4,3,.2,1.8-.7,2.9-2.4,3.5-1.6.5-3.2.9-4.9.8-5.4-.5-10.7.8-16.1.7-2.7,0-3.2,1.5-3.2,4,0,15.3,0,30.6,0,45.9s.1,1.9,0,2.9c-.3,1.7-1.5,2.9-3.1,3.1-1.5.2-2.6-.8-3.4-2.1-.8-1.3-.6-2.8-.6-4.2,0-15.2,0-30.4,0-45.6,0-2.4-.2-2.9-3.1-2.7-8.3.6-16.5,1.8-24.8,2.3-2.4.2-3,.9-3,3.2,0,10.5,0,21,0,31.6,0,2.6-.2,4.9-3.7,4.8-3.3,0-3.5-2.4-3.5-4.7,0-10.2,0-20.3,0-30.5,0-2.2-.6-3.2-2.8-2.8-10.6,2-21.3,3.4-31.6,6.5-2.5.8-4.9,1.8-7.3,2.9-1.9.9-3.7.9-4.6-1-.8-1.8-1-3.8,1.6-5.1,6.1-3.1,12.7-4.6,19.3-6.2,7.5-1.8,15.2-2.6,22.8-4,2.3-.4,2.8-1.4,2.8-3.5,0-16.6,0-33.2,0-49.9,0-1.4-.3-2.9.8-4.1,1-1.1,2.1-2,3.7-1.6,1.5.4,2.4,1.5,2.6,3.1.1.9,0,1.9,0,2.9,0,16.3,0,32.5,0,48.8,0,2.4.2,3,3,2.8,8.5-.7,17-2.4,25.6-2.3,2.4,0,2.4-1.3,2.3-3,0-9.7,0-19.4,0-29.1h0Z"/>
        <path class="cls-2" d="M664.4,265.8c-2.7,3.7-5.2,7.6-8.3,11-7.1,8.1-15.4,13.7-26.9,12.9-7.2-.5-12.8-4-17.7-9-8.7-8.9-12-19.9-12.6-31.8-.3-6.4,1-12.8,3.4-18.8,1-2.6,2.8-3.7,5.3-2.6,2.4,1,2.2,3,1.3,5.1-5.9,15.9-3.7,30.8,7.7,43.3,7.9,8.7,16.5,10.1,26.9,3,10.6-7.2,16.3-18.2,21-29.6,1.5-3.8,1.2-8.2,1-12.4,0-2.6.6-4.9,3.6-5.2,2.4-.2,3.7,2.1,3.5,5.5-.6,12.4-1.3,24.9-1.4,37.4-.2,12.6-2.2,25.1-5.1,37.4-2.8,12.1-7.5,23.4-15.8,32.7-9,10-20.4,14.1-33.9,11-5.1-1.1-6.1-3.1-5.5-8.2,1.6-12.8,8.9-21.2,20-26.8,8-4.1,16.6-6.5,25.4-7.8,1.7-.3,2.3-.9,2.7-2.5,3-11.7,5-23.4,4.9-35.5,0-2.9-.3-5.9.2-8.8h0ZM656.4,319.8c-8.6,1.3-16,3.7-23,7.4-7.7,4.1-13.4,9.8-15.1,18.7-.3,1.6-.3,3.1,1.7,3.2,4.6.1,9.3.6,13.7-1.3,12.4-5.3,17.8-16,22.6-28h0Z"/>
        <path class="cls-2" d="M584.4,251.4c-3.6,8-7.2,16-10.7,24-6.3,14.3-12.7,28.5-19,42.8-.9,2.1-1.6,4.2-2.6,6.2-1.4,2.8-3.5,5.2-7,4.5-3.2-.6-4.7-3-5.4-6.3-.8-3.5,0-6.9.3-10.2.5-5,.4-10,.5-15,.4-11.6.8-23.1,1.2-34.7.2-6.5.2-13.1.3-19.6,0-1,0-1.9.1-2.9.4-1.9,1.5-3.5,3.6-3.4,2.1.1,3.5,1.5,3.5,3.8-.4,11.4-.8,22.9-1.2,34.3-.2,5.4-.4,10.8-.2,16.1.3,8.6-1.3,17.1-.6,26.8,2.6-5.8,4.8-10.8,7-15.9,6.8-15.5,13.7-30.9,20.5-46.4,1.9-4.2,3.7-8.5,5.6-12.7,1.3-2.8,3.4-4.6,6.8-3.9,3.4.7,5.1,2.9,5.1,6.7,0,39.7,0,79.4,0,119.2s0,1.5,0,2.1c-.5,1.9-1.1,3.8-3.6,3.6-2.2-.2-3.3-1.8-3.4-3.9-.1-2.5,0-5,0-7.5v-107.7c-.2,0-.5-.1-.7-.2h0Z"/>
        <path class="cls-2" d="M529.9,316.9c-2.4,4.6-3.8,9.7-6.4,14.2-2.6,4.4-5.5,8.3-9.5,11.5-8.7,6.7-18.9,6.2-26.9-1.3-8.6-8.1-12.5-18.7-15.3-29.8-2.8-11.1-3.7-22.4-2.8-33.7,1.1-14.4,3.8-28.5,12-40.9,3.6-5.4,7.7-10.4,14.3-12.4,9.2-2.8,16.5,0,22.3,6.7,10,11.4,13.6,25.3,15.5,40,.7,5.4.9,10.7,1,16,.2,9.3-.6,18.7-3.8,27.6-.2.6-.1,1.4-.2,2.1h0s0,0,0,0ZM513.1,284.1c-1.2-.2-1.8-1.1-2.5-1.9-8.1-8.4-17.9-13.6-29.1-16.6-3-.8-4.5,0-4.6,2.8-.1,3.5-1,6.8-.9,10.3.3,7.1-.3,14.3.7,21.4,1.7,12.2,5.1,23.7,12.5,33.7,4,5.3,10.7,7.9,16,6,5-1.9,8.3-5.8,11.1-10.2,7.4-11.8,9.6-25,10.6-38.5,1-13.6-.9-27.1-5.7-40-2.3-6.2-5.3-12-10.2-16.6-6-5.6-13.1-5.5-19.1,0-6.3,5.8-9.2,13.5-12.1,21.2-.6,1.7,0,2.8,1.9,3.5,2.8.9,5.6,2,8.2,3.4,9.6,5.1,17.9,11.8,23.6,21.3,0,0-.2.2-.3.2h0Z"/>
      </g>
      <g>
        <path class="cls-1" d="M182.5,394.7v19.7c0,.2,0,.4-.2.5s-.3.2-.5.2h-4.3c-.2,0-.4,0-.5-.2s-.2-.3-.2-.5v-6.1c0-.2,0-.4-.2-.5s-.3-.2-.5-.2h-5.9c-.2,0-.4,0-.5.2s-.2.3-.2.5v6.1c0,.2,0,.4-.2.5s-.3.2-.5.2h-4.3c-.2,0-.4,0-.5-.2s-.2-.3-.2-.5v-19.7c0-.2,0-.4.2-.5s.3-.2.5-.2h4.3c.2,0,.4,0,.5.2s.2.3.2.5v6.8c0,.2,0,.4.2.5.1.1.3.2.5.2h5.9c.2,0,.4,0,.5-.2s.2-.3.2-.5v-6.8c0-.2,0-.4.2-.5s.3-.2.5-.2h4.3c.2,0,.4,0,.5.2s.2.3.2.5Z"/>
        <path class="cls-1" d="M204.2,400v1.2c0,.2,0,.4.2.5s.3.2.5.2h7.8c.2,0,.4,0,.5.2s.2.3.2.5v4c0,.2,0,.4-.2.5s-.3.2-.5.2h-7.8c-.2,0-.4,0-.5.2s-.2.3-.2.5v1.1c0,.2,0,.4.2.5s.3.2.5.2h8.9c.2,0,.4,0,.5.2s.2.3.2.5v4c0,.2,0,.4-.2.5s-.3.2-.5.2h-14.6c-.2,0-.4,0-.5-.2s-.2-.3-.2-.5v-19.7c0-.2,0-.4.2-.5s.3-.2.5-.2h14.6c.2,0,.4,0,.5.2s.2.3.2.5v3.9c0,.2,0,.4-.2.5s-.3.2-.5.2h-8.9c-.2,0-.4,0-.5.2-.1.1-.2.3-.2.5h0Z"/>
        <path class="cls-1" d="M236.4,394.7c0-.2.2-.3.4-.5.2-.1.4-.2.6-.2h4c.2,0,.4,0,.6.2s.3.3.4.5l8.4,19.5c0,.2,0,.4,0,.5-.1.2-.3.3-.6.3h-4.9c-.2,0-.4,0-.6-.2s-.3-.3-.4-.5l-.8-1.7c-.1-.2-.2-.3-.4-.5-.2-.1-.4-.2-.6-.2h-6.1c-.2,0-.4,0-.6.2s-.3.3-.4.5l-.8,1.7c0,.2-.2.3-.4.5s-.4.2-.6.2h-4.9c-.1,0-.2,0-.3,0s-.2-.1-.3-.2-.1-.2-.1-.3c0-.1,0-.2,0-.4l8.3-19.5h0ZM238.1,407.2h2.6c.2,0,.3,0,.4-.2s0-.3,0-.5c-.2-.5-.4-1-.7-1.7-.3-.6-.5-1.2-.8-1.8,0-.2-.2-.3-.3-.3s-.2,0-.3.3l-1.4,3.5c0,.2,0,.3,0,.5s.2.2.4.2h0Z"/>
        <path class="cls-1" d="M279.8,410.5v3.9c0,.2,0,.4-.2.5-.1.1-.3.2-.5.2h-14.3c-.2,0-.4,0-.5-.2s-.2-.3-.2-.5v-19.7c0-.2,0-.4.2-.5s.3-.2.5-.2h4.3c.2,0,.4,0,.5.2s.2.3.2.5v14.4c0,.2,0,.4.2.5s.3.2.5.2h8.6c.2,0,.4,0,.5.2.1.1.2.3.2.5Z"/>
        <path class="cls-1" d="M305.2,399.3h-4c-.2,0-.4,0-.5.2-.1.1-.2.3-.2.5v14.4c0,.2,0,.4-.2.5s-.3.2-.5.2h-4.3c-.2,0-.4,0-.5-.2s-.2-.3-.2-.5v-14.4c0-.2,0-.4-.2-.5-.1-.1-.3-.2-.5-.2h-4.1c-.2,0-.4,0-.5-.2s-.2-.3-.2-.5v-3.9c0-.2,0-.4.2-.5s.3-.2.5-.2h15.2c.2,0,.4,0,.5.2s.2.3.2.5v3.9c0,.2,0,.4-.2.5-.1.1-.3.2-.5.2h0Z"/>
        <path class="cls-1" d="M318.9,418.1c-.2,0-.4,0-.5,0s-.3-.2-.4-.4l-.6-1.5c-.1-.2-.1-.4,0-.5,0-.2.2-.3.4-.4,0,0,.1,0,.2,0s.1,0,.2,0c.4-.1.4-.4,0-.6-.6-.5-.9-1.2-.9-2,0-.4,0-.8.2-1.2.1-.4.3-.7.6-1s.6-.5.9-.7c.4-.2.7-.2,1.1-.3.8,0,1.4.2,1.9.6.5.4.9,1,1.1,1.8,0,.2.1.4.1.6,0,.2,0,.4,0,.6,0,.5-.1,1-.3,1.6s-.5,1-.8,1.5c-.4.5-.8.9-1.3,1.2-.5.4-1.1.7-1.8.9h0Z"/>
        <path class="cls-1" d="M379.6,409.5c-.6.9-1.2,1.7-1.8,2.5-.7.7-1.4,1.4-2.3,1.9-.8.5-1.8.9-2.8,1.2-1,.3-2.1.4-3.4.4s-3-.3-4.3-.9c-1.3-.6-2.5-1.4-3.5-2.3-1-1-1.8-2.1-2.4-3.5s-.9-2.7-.9-4.2.3-2.9.9-4.2c.6-1.3,1.4-2.5,2.4-3.5,1-1,2.2-1.8,3.5-2.3s2.8-.9,4.3-.9,2.4.1,3.4.4c1,.3,1.9.7,2.8,1.2s1.6,1.1,2.2,1.9,1.3,1.5,1.8,2.4c.1.1.1.3,0,.5,0,.2-.2.3-.3.4l-4.1,1.6c-.2,0-.4,0-.6,0s-.3-.2-.4-.3c-.6-.9-1.2-1.6-2-2-.8-.5-1.7-.7-2.9-.7s-1.4.1-2,.5c-.6.3-1.2.7-1.7,1.2-.5.5-.9,1.1-1.1,1.8-.3.7-.4,1.4-.4,2.1s.1,1.4.4,2.1.6,1.2,1.1,1.8c.5.5,1,.9,1.7,1.2.6.3,1.3.5,2,.5,1,0,2-.2,2.9-.8.9-.5,1.5-1.2,2-2,.1-.1.2-.3.4-.3.2,0,.4,0,.6,0l4.1,1.6c.2,0,.3.2.3.4,0,.2,0,.3,0,.5h0Z"/>
        <path class="cls-1" d="M407.2,410.5v3.9c0,.2,0,.4-.2.5-.1.1-.3.2-.5.2h-14.3c-.2,0-.4,0-.5-.2s-.2-.3-.2-.5v-19.7c0-.2,0-.4.2-.5s.3-.2.5-.2h4.3c.2,0,.4,0,.5.2s.2.3.2.5v14.4c0,.2,0,.4.2.5s.3.2.5.2h8.6c.2,0,.4,0,.5.2.1.1.2.3.2.5Z"/>
        <path class="cls-1" d="M424.2,415.1h-4.3c-.2,0-.4,0-.5-.2s-.2-.3-.2-.5v-19.6c0-.2,0-.4.2-.5.1-.1.3-.2.5-.2h4.3c.2,0,.4,0,.5.2s.2.3.2.5v19.6c0,.2,0,.4-.2.5s-.3.2-.5.2Z"/>
        <path class="cls-1" d="M458.3,394.7v19.7c0,.2,0,.4-.2.5s-.3.2-.5.2h-4.2c-.2,0-.4,0-.6-.2-.2-.1-.4-.2-.5-.4l-7.5-10.5c-.1-.1-.2-.2-.4-.2-.1,0-.2.1-.2.3v10.3c0,.2,0,.4-.2.5s-.3.2-.5.2h-4.3c-.2,0-.4,0-.5-.2s-.2-.3-.2-.5v-19.7c0-.2,0-.4.2-.5s.3-.2.5-.2h4.3c.2,0,.4,0,.6.2s.4.2.5.4l7.5,10.5c.1.1.2.2.4.2s.2-.1.2-.3v-10.3c0-.2,0-.4.2-.5s.3-.2.5-.2h4.2c.2,0,.4,0,.5.2s.2.3.2.5h0Z"/>
        <path class="cls-1" d="M477.6,415.1h-4.3c-.2,0-.4,0-.5-.2s-.2-.3-.2-.5v-19.6c0-.2,0-.4.2-.5.1-.1.3-.2.5-.2h4.3c.2,0,.4,0,.5.2s.2.3.2.5v19.6c0,.2,0,.4-.2.5s-.3.2-.5.2Z"/>
        <path class="cls-1" d="M512.2,409.5c-.6.9-1.2,1.7-1.8,2.5-.7.7-1.4,1.4-2.3,1.9s-1.8.9-2.8,1.2c-1,.3-2.1.4-3.4.4s-3-.3-4.3-.9c-1.3-.6-2.5-1.4-3.5-2.3-1-1-1.8-2.1-2.4-3.5s-.9-2.7-.9-4.2.3-2.9.9-4.2c.6-1.3,1.4-2.5,2.4-3.5,1-1,2.2-1.8,3.5-2.3s2.8-.9,4.3-.9,2.4.1,3.4.4c1,.3,1.9.7,2.8,1.2s1.6,1.1,2.2,1.9,1.3,1.5,1.8,2.4c0,.1.1.3,0,.5,0,.2-.2.3-.3.4l-4.1,1.6c-.2,0-.4,0-.6,0s-.3-.2-.4-.3c-.6-.9-1.2-1.6-2-2-.8-.5-1.7-.7-2.9-.7s-1.4.1-2,.5c-.6.3-1.2.7-1.7,1.2-.5.5-.9,1.1-1.1,1.8-.3.7-.4,1.4-.4,2.1s.1,1.4.4,2.1.6,1.2,1.1,1.8c.5.5,1,.9,1.7,1.2.6.3,1.3.5,2,.5,1,0,2-.2,2.9-.8.9-.5,1.5-1.2,2-2,.1-.1.2-.3.4-.3.2,0,.4,0,.6,0l4.1,1.6c.2,0,.3.2.3.4,0,.2,0,.3,0,.5h0Z"/>
        <path class="cls-1" d="M559.1,415.2l-1.5-1.6c-.2-.1-.3-.2-.5-.2s-.3,0-.5.2c-.5.4-.9.7-1.4,1-.5.2-.9.4-1.3.5s-.8.2-1.2.3-.7,0-1,0c-1.9,0-3.4-.5-4.6-1.5s-1.9-2.3-2.1-3.9c-.2-1.2,0-2.3.5-3.2s1.2-1.7,2.1-2.5c0,0,0,0,.1-.1,0,0,.2-.1.3-.3.2-.1.2-.3.3-.5,0-.2,0-.4-.1-.5-.8-1.3-1.1-2.8-.9-4.2,0-.8.3-1.4.7-2s.8-1.1,1.3-1.6c.5-.4,1.1-.8,1.8-1,.7-.2,1.4-.4,2.1-.4,1.1,0,2.2.3,3.1.8,1,.5,1.7,1.3,2.2,2.4.3.7.5,1.4.5,2.1s0,1.4-.3,2-.5,1.2-.9,1.8c-.4.6-.9,1-1.4,1.5-.2.1-.2.3-.3.4s0,.3.2.5l.5.4c.1.1.3.2.4.2s.3-.1.4-.3c.2-.3.4-.6.5-.9.2-.3.3-.5.4-.8,0-.2.2-.3.4-.4.2,0,.4,0,.5,0l3.1,1.4c.2,0,.3.2.4.4s0,.3,0,.5c-.2.4-.5.8-.8,1.4-.3.6-.7,1.2-1.2,1.8-.1.1-.2.3-.2.5,0,.2,0,.4.2.5.3.4.7.7,1,1s.6.7.9,1c.1.1.2.3.2.5s0,.3-.2.5l-2.6,2.3c-.2.1-.3.2-.5.2-.2,0-.4,0-.5-.2h0ZM550.7,407.4c-.2.1-.5.4-.7.7-.2.3-.2.8-.1,1.3,0,.4.2.8.5,1s.6.4.9.4c.3,0,.7,0,1.1,0,.4-.1.7-.3,1-.5.2-.1.2-.3.2-.5s0-.4-.2-.5l-1.7-1.7c-.1-.1-.3-.2-.5-.3s-.4,0-.5.1h0ZM553.2,400.9c.3-.2.6-.5.7-.8.1-.3.2-.6.2-.9,0-.3-.1-.5-.3-.8s-.4-.3-.7-.3-.5,0-.7.3-.4.5-.4.9c0,.2,0,.4,0,.7,0,.2.1.5.2.7,0,.2.2.3.4.4s.4,0,.5,0h0Z"/>
        <path class="cls-1" d="M601.6,407.9c1,.7,2.1,1.2,3.1,1.6,1,.4,2,.6,2.8.6s1.5-.1,1.9-.4.7-.6.7-1.1,0-.5-.3-.6c-.2-.1-.5-.3-.8-.4-.3-.1-.7-.2-1.1-.2-.4,0-.8-.1-1.3-.2-.4,0-.9-.2-1.5-.3-.6-.1-1.2-.3-1.7-.5-.6-.2-1.2-.5-1.8-.8s-1.1-.7-1.6-1.2c-.5-.5-.8-1-1.1-1.7-.3-.7-.4-1.4-.4-2.3,0-1.3.3-2.4.8-3.3s1.2-1.5,2-2.1,1.7-.9,2.7-1.1,1.9-.3,2.8-.3c1.6,0,3,.2,4.3.7,1.3.5,2.5,1.2,3.7,2.1.2.1.2.3.3.5s0,.4-.2.5l-2.2,3.2c-.1.1-.3.2-.5.3s-.4,0-.5-.1c-1-.6-1.9-1-2.7-1.3-.8-.3-1.6-.4-2.3-.4s-.5,0-.7,0-.5,0-.8.1c-.2,0-.5.2-.6.3s-.2.4-.2.6.2.5.6.7c.4.2.9.4,1.4.5s1,.3,1.5.4.8.1.9.2c.7.1,1.5.3,2.3.6s1.6.6,2.3,1.1c.7.5,1.3,1.2,1.8,2s.7,1.8.7,3.1-.2,2.1-.6,3-1,1.5-1.7,2.1-1.6.9-2.6,1.2-2.1.4-3.3.4-1.9,0-2.8-.2-1.7-.4-2.4-.7c-.8-.3-1.4-.6-2.1-1-.6-.4-1.2-.8-1.8-1.2-.2-.1-.2-.3-.3-.5s0-.4.1-.5l2.2-3.2c.1-.1.3-.2.5-.3s.4,0,.5,0h0Z"/>
        <path class="cls-1" d="M639.1,409.4h-2.5c-.2,0-.4,0-.5.2s-.2.3-.2.5v4.3c0,.2,0,.4-.2.5s-.3.2-.5.2h-4.3c-.2,0-.3,0-.5-.2-.1-.1-.2-.3-.2-.5v-19.7c0-.2,0-.4.2-.5s.3-.2.5-.2h8.8c1.1,0,2.1.2,3,.6,1,.4,1.8,1,2.5,1.7.7.7,1.3,1.5,1.7,2.5s.6,1.9.6,3-.2,2.1-.5,3c-.3.9-.9,1.7-1.6,2.4s-1.6,1.2-2.6,1.6c-1,.4-2.3.6-3.7.6h0ZM639.3,399.3h-2.7c-.2,0-.4,0-.5.2s-.2.3-.2.5v3.4c0,.2,0,.4.2.5.1.1.3.2.5.2h3.1c.7,0,1.3-.2,1.6-.7.3-.5.5-1,.5-1.6s0-.6-.2-.9c-.1-.3-.3-.6-.5-.8-.2-.2-.5-.4-.8-.6-.3-.1-.7-.2-1.1-.2h0Z"/>
        <path class="cls-1" d="M665.6,394.7c0-.2.2-.3.4-.5.2-.1.4-.2.6-.2h4c.2,0,.4,0,.6.2s.3.3.4.5l8.4,19.5c0,.2,0,.4,0,.5,0,.2-.3.3-.6.3h-4.9c-.2,0-.4,0-.6-.2-.2-.1-.3-.3-.4-.5l-.8-1.7c0-.2-.2-.3-.4-.5-.2-.1-.4-.2-.6-.2h-6.1c-.2,0-.4,0-.6.2-.2.1-.3.3-.4.5l-.8,1.7c0,.2-.2.3-.4.5s-.4.2-.6.2h-5c0,0-.2,0-.3,0s-.2-.1-.3-.2-.1-.2-.1-.3c0-.1,0-.2,0-.4l8.3-19.5h0ZM667.3,407.2h2.6c.2,0,.3,0,.4-.2,0-.1,0-.3,0-.5-.2-.5-.4-1-.7-1.7-.3-.6-.5-1.2-.8-1.8,0-.2-.2-.3-.3-.3s-.2,0-.3.3l-1.4,3.5c0,.2,0,.3,0,.5s.2.2.4.2h0Z"/>
      </g>
    </g>
  </g>
</svg>